<?xml version="1.0" encoding="UTF-8"?> <svg xmlns="http://www.w3.org/2000/svg" width="85" height="39" viewBox="0 0 85 39" fill="none"><g clip-path="url(#clip0_10752_1132)"><path d="M0.5 8.15911C0.5 7.94402 0.674472 7.79346 0.870753 7.79346H8.35123C14.2615 7.79346 18.7323 10.7187 18.7323 16.9564C18.7323 23.1941 14.2615 26.1193 8.35123 26.1193H0.870753C0.652663 26.1193 0.5 25.9473 0.5 25.7537V8.15911ZM5.86501 12.2459V21.6024H8.24219C11.1646 21.6024 13.2801 19.9247 13.2801 16.9349C13.2801 13.7945 11.1646 12.2459 8.24219 12.2459H5.86501Z" fill="white"></path><path d="M45.2324 8.15911C45.2324 7.94402 45.4069 7.79346 45.6032 7.79346H56.5949C60.7386 7.79346 63.4211 9.85835 63.4211 13.8376C63.4211 16.2681 62.3088 18.0104 60.4115 18.9568C60.2152 19.0428 60.1498 19.2794 60.237 19.4515L63.7482 25.5386C63.9009 25.7967 63.7046 26.0978 63.4211 26.0978H58.6449C58.5141 26.0978 58.3832 26.0333 58.3178 25.9042L54.8938 19.9032C54.8284 19.7956 54.6975 19.7096 54.5667 19.7096H50.9464C50.7283 19.7096 50.5756 19.8817 50.5756 20.0752V25.7107C50.5756 25.9258 50.4012 26.0763 50.2049 26.0763H45.6032C45.3851 26.0763 45.2324 25.9042 45.2324 25.7107V8.15911ZM50.5974 12.6115V14.956C50.5974 15.1711 50.7719 15.3217 50.9682 15.3217H55.9188C57.2492 15.3217 57.9252 14.8055 57.9252 13.773C57.9252 12.6545 57.2492 12.2244 55.9188 12.2244H50.9682C50.7501 12.2244 50.5974 12.3964 50.5974 12.59V12.6115Z" fill="white"></path><path d="M65.8587 7.77148H83.8947C84.1128 7.77148 84.2655 7.94356 84.2655 8.13714V11.9443C84.2655 12.1594 84.091 12.3099 83.8947 12.3099H77.9191C77.701 12.3099 77.5483 12.482 77.5483 12.6756V25.7102C77.5483 25.9253 77.3738 26.0759 77.1776 26.0759H72.5977C72.3796 26.0759 72.2269 25.9038 72.2269 25.7102V12.6756C72.2269 12.4605 72.0525 12.3099 71.8562 12.3099H65.8805C65.6624 12.3099 65.5098 12.1379 65.5098 11.9443V8.13714C65.5098 7.92205 65.6842 7.77148 65.8805 7.77148H65.8587Z" fill="white"></path><path d="M40.6835 25.5402C34.2417 17.8864 35.7226 14.8349 48.2293 0.976725C48.3256 0.870468 48.3007 0.742628 48.2227 0.664596L48.2194 0.661276C48.2194 0.661276 48.2194 0.661276 48.2177 0.659616C48.2177 0.659616 48.2177 0.659615 48.2161 0.657955L48.2127 0.654635C48.1347 0.576603 48.0069 0.551699 47.9006 0.647994C34.0408 13.153 30.9909 14.6357 23.3354 8.1922C23.2292 8.12911 23.118 8.15402 23.0482 8.22375C22.9785 8.29348 22.9536 8.40472 23.0167 8.51097C29.4585 16.1648 27.9775 19.2163 15.4708 33.0745C15.3745 33.1807 15.3994 33.3086 15.4775 33.3866L15.4808 33.3899C15.4808 33.3899 15.4808 33.3899 15.4824 33.3916C15.4824 33.3916 15.4824 33.3916 15.4841 33.3932L15.4874 33.3966C15.5654 33.4746 15.6933 33.4995 15.7995 33.4032C29.6577 20.8965 32.7093 19.4155 40.363 25.8573C40.4693 25.9204 40.5805 25.8955 40.6503 25.8258C40.72 25.7561 40.7449 25.6448 40.6818 25.5386L40.6835 25.5402Z" fill="#8178FF"></path><path d="M25.592 36.0792C25.072 36.0792 24.6077 35.9708 24.1992 35.7542C23.7968 35.5313 23.4811 35.228 23.2521 34.8442C23.023 34.4604 22.9085 34.024 22.9085 33.5349C22.9085 33.0397 23.023 32.6033 23.2521 32.2257C23.4811 31.8419 23.7968 31.5417 24.1992 31.325C24.6077 31.1084 25.072 31 25.592 31C26.0748 31 26.4989 31.0991 26.8641 31.2972C27.2355 31.4891 27.5172 31.7738 27.7091 32.1514L26.8177 32.6714C26.6691 32.4362 26.4865 32.2628 26.2698 32.1514C26.0594 32.04 25.8303 31.9843 25.5827 31.9843C25.298 31.9843 25.0411 32.0462 24.812 32.17C24.583 32.2938 24.4035 32.4733 24.2735 32.7085C24.1435 32.9376 24.0785 33.2131 24.0785 33.5349C24.0785 33.8568 24.1435 34.1354 24.2735 34.3706C24.4035 34.5997 24.583 34.7761 24.812 34.8999C25.0411 35.0237 25.298 35.0856 25.5827 35.0856C25.8303 35.0856 26.0594 35.0299 26.2698 34.9185C26.4865 34.8071 26.6691 34.6337 26.8177 34.3985L27.7091 34.9185C27.5172 35.2899 27.2355 35.5777 26.8641 35.782C26.4989 35.9801 26.0748 36.0792 25.592 36.0792ZM30.8684 36.0792C30.3608 36.0792 29.9089 35.9708 29.5127 35.7542C29.1165 35.5313 28.8039 35.228 28.5749 34.8442C28.3458 34.4604 28.2313 34.024 28.2313 33.5349C28.2313 33.0397 28.3458 32.6033 28.5749 32.2257C28.8039 31.8419 29.1165 31.5417 29.5127 31.325C29.9089 31.1084 30.3608 31 30.8684 31C31.3822 31 31.8372 31.1084 32.2333 31.325C32.6357 31.5417 32.9483 31.8388 33.1712 32.2164C33.4002 32.594 33.5147 33.0335 33.5147 33.5349C33.5147 34.024 33.4002 34.4604 33.1712 34.8442C32.9483 35.228 32.6357 35.5313 32.2333 35.7542C31.8372 35.9708 31.3822 36.0792 30.8684 36.0792ZM30.8684 35.0856C31.1531 35.0856 31.4069 35.0237 31.6298 34.8999C31.8526 34.7761 32.026 34.5966 32.1498 34.3614C32.2798 34.1261 32.3448 33.8507 32.3448 33.5349C32.3448 33.2131 32.2798 32.9376 32.1498 32.7085C32.026 32.4733 31.8526 32.2938 31.6298 32.17C31.4069 32.0462 31.1562 31.9843 30.8777 31.9843C30.5929 31.9843 30.3391 32.0462 30.1163 32.17C29.8996 32.2938 29.7263 32.4733 29.5963 32.7085C29.4663 32.9376 29.4013 33.2131 29.4013 33.5349C29.4013 33.8507 29.4663 34.1261 29.5963 34.3614C29.7263 34.5966 29.8996 34.7761 30.1163 34.8999C30.3391 35.0237 30.5898 35.0856 30.8684 35.0856ZM40.883 31C41.2792 31 41.6289 31.0774 41.9323 31.2322C42.2418 31.3869 42.4832 31.6252 42.6565 31.9471C42.8299 32.2628 42.9165 32.6714 42.9165 33.1728V36.0142H41.7558V33.3214C41.7558 32.8819 41.6599 32.5538 41.468 32.3371C41.2761 32.1205 41.0006 32.0121 40.6416 32.0121C40.3878 32.0121 40.1618 32.0679 39.9637 32.1793C39.7718 32.2907 39.6202 32.4547 39.5088 32.6714C39.4035 32.8881 39.3509 33.1635 39.3509 33.4978V36.0142H38.1902V33.3214C38.1902 32.8819 38.0943 32.5538 37.9024 32.3371C37.7105 32.1205 37.435 32.0121 37.076 32.0121C36.8222 32.0121 36.5962 32.0679 36.3981 32.1793C36.2062 32.2907 36.0546 32.4547 35.9432 32.6714C35.8379 32.8881 35.7853 33.1635 35.7853 33.4978V36.0142H34.6246V31.0557H35.7296V32.3743L35.5346 31.9843C35.7017 31.6624 35.9432 31.4179 36.2589 31.2507C36.5808 31.0836 36.946 31 37.3545 31C37.8188 31 38.2212 31.1145 38.5616 31.3436C38.9083 31.5726 39.1373 31.9193 39.2488 32.3836L38.7938 32.2257C38.9547 31.8543 39.2209 31.5572 39.5923 31.3343C39.9637 31.1115 40.394 31 40.883 31ZM50.6581 31C51.0543 31 51.404 31.0774 51.7074 31.2322C52.0169 31.3869 52.2583 31.6252 52.4316 31.9471C52.6049 32.2628 52.6916 32.6714 52.6916 33.1728V36.0142H51.5309V33.3214C51.5309 32.8819 51.435 32.5538 51.2431 32.3371C51.0512 32.1205 50.7757 32.0121 50.4167 32.0121C50.1629 32.0121 49.9369 32.0679 49.7388 32.1793C49.5469 32.2907 49.3953 32.4547 49.2839 32.6714C49.1786 32.8881 49.126 33.1635 49.126 33.4978V36.0142H47.9653V33.3214C47.9653 32.8819 47.8694 32.5538 47.6775 32.3371C47.4856 32.1205 47.2101 32.0121 46.8511 32.0121C46.5973 32.0121 46.3713 32.0679 46.1732 32.1793C45.9813 32.2907 45.8297 32.4547 45.7183 32.6714C45.613 32.8881 45.5604 33.1635 45.5604 33.4978V36.0142H44.3997V31.0557H45.5047V32.3743L45.3097 31.9843C45.4768 31.6624 45.7183 31.4179 46.034 31.2507C46.3559 31.0836 46.7211 31 47.1296 31C47.5939 31 47.9963 31.1145 48.3367 31.3436C48.6834 31.5726 48.9124 31.9193 49.0239 32.3836L48.5689 32.2257C48.7298 31.8543 48.996 31.5572 49.3674 31.3343C49.7388 31.1115 50.1691 31 50.6581 31ZM56.2733 36.0792C55.8524 36.0792 55.481 36.0018 55.1591 35.847C54.8372 35.6861 54.5865 35.4447 54.4069 35.1228C54.2274 34.7947 54.1377 34.383 54.1377 33.8878V31.0557H55.2984V33.7299C55.2984 34.1756 55.3974 34.5099 55.5955 34.7328C55.7998 34.9494 56.0876 35.0578 56.459 35.0578C56.7314 35.0578 56.9666 35.002 57.1647 34.8906C57.369 34.7792 57.5269 34.6121 57.6383 34.3892C57.7559 34.1664 57.8147 33.8909 57.8147 33.5628V31.0557H58.9754V36.0142H57.8704V34.6771L58.0654 35.0856C57.8983 35.4075 57.6538 35.6551 57.3319 35.8285C57.01 35.9956 56.6571 36.0792 56.2733 36.0792ZM63.3086 31C63.7047 31 64.0576 31.0774 64.3671 31.2322C64.6828 31.3869 64.9304 31.6252 65.1099 31.9471C65.2895 32.2628 65.3792 32.6714 65.3792 33.1728V36.0142H64.2185V33.3214C64.2185 32.8819 64.1133 32.5538 63.9028 32.3371C63.6985 32.1205 63.4107 32.0121 63.0393 32.0121C62.7669 32.0121 62.5255 32.0679 62.315 32.1793C62.1046 32.2907 61.9405 32.4578 61.8229 32.6807C61.7115 32.8973 61.6558 33.1728 61.6558 33.5071V36.0142H60.4951V31.0557H61.6V32.3928L61.405 31.9843C61.5784 31.6686 61.8291 31.4272 62.1572 31.26C62.4914 31.0867 62.8752 31 63.3086 31ZM66.8516 36.0142V31.0557H68.0123V36.0142H66.8516ZM67.4366 30.2386C67.2199 30.2386 67.0404 30.1705 66.898 30.0343C66.7618 29.8982 66.6938 29.7341 66.6938 29.5422C66.6938 29.3441 66.7618 29.1801 66.898 29.0501C67.0404 28.9139 67.2199 28.8458 67.4366 28.8458C67.6533 28.8458 67.8297 28.9108 67.9659 29.0408C68.1082 29.1646 68.1794 29.3225 68.1794 29.5144C68.1794 29.7186 68.1113 29.892 67.9751 30.0343C67.839 30.1705 67.6594 30.2386 67.4366 30.2386ZM71.4021 36.0792C70.8573 36.0792 70.4364 35.9399 70.1392 35.6613C69.8421 35.3766 69.6935 34.9587 69.6935 34.4078V29.9601H70.8542V34.3799C70.8542 34.6152 70.913 34.7978 71.0306 34.9278C71.1544 35.0578 71.3247 35.1228 71.5413 35.1228C71.8013 35.1228 72.018 35.0547 72.1913 34.9185L72.5163 35.7449C72.3801 35.8563 72.213 35.9399 72.0149 35.9956C71.8168 36.0513 71.6125 36.0792 71.4021 36.0792ZM68.8764 32.0214V31.0929H72.182V32.0214H68.8764ZM73.789 37.8805C73.5476 37.8805 73.3061 37.8403 73.0647 37.7598C72.8233 37.6793 72.6221 37.5679 72.4612 37.4255L72.9254 36.5713C73.0431 36.6765 73.1761 36.7601 73.3247 36.822C73.4733 36.8839 73.6249 36.9148 73.7797 36.9148C73.9902 36.9148 74.1604 36.8622 74.2904 36.757C74.4204 36.6518 74.5411 36.4753 74.6525 36.2277L74.9404 35.5777L75.0332 35.4385L76.9089 31.0557H78.0231L75.7018 36.4134C75.547 36.7849 75.3737 37.0789 75.1818 37.2956C74.9961 37.5122 74.7856 37.6639 74.5504 37.7505C74.3214 37.8372 74.0676 37.8805 73.789 37.8805ZM74.8104 36.1906L72.5726 31.0557H73.7797L75.5996 35.3363L74.8104 36.1906Z" fill="#8178FF"></path></g><defs><clipPath id="clip0_10752_1132"><rect width="83.7551" height="38" fill="white" transform="translate(0.5 0.498535)"></rect></clipPath></defs></svg> 